<?xml version="1.0" encoding="UTF-8" standalone="no"?>
<!DOCTYPE svg PUBLIC "-//W3C//DTD SVG 1.1//EN"
 "http://www.w3.org/Graphics/SVG/1.1/DTD/svg11.dtd">
<!-- Generated by graphviz version 8.0.1 (20230327.1645)
 -->
<!-- Title: unnamed Pages: 1 -->
<svg width="227pt" height="439pt"
 viewBox="0.00 0.00 227.00 439.00" xmlns="http://www.w3.org/2000/svg" xmlns:xlink="http://www.w3.org/1999/xlink">
<g id="graph0" class="graph" transform="scale(1 1) rotate(0) translate(4 435)">
<title>unnamed</title>
<polygon fill="white" stroke="none" points="-4,4 -4,-435 223,-435 223,4 -4,4"/>
<!-- Node0xe1035f0 -->
<g id="node1" class="node">
<title>Node0xe1035f0</title>
<polygon fill="none" stroke="black" points="43.5,-77.5 43.5,-113.5 120.5,-113.5 120.5,-77.5 43.5,-77.5"/>
<text text-anchor="start" x="51.5" y="-91.8" font-family="Times New Roman,serif" font-size="14.00">B0 (EXIT)</text>
</g>
<!-- Node0xe1036c8 -->
<g id="node2" class="node">
<title>Node0xe1036c8</title>
<polygon fill="none" stroke="black" points="0,-0.5 0,-38.5 54,-38.5 54,-0.5 0,-0.5"/>
<text text-anchor="start" x="8" y="-23.3" font-family="Times New Roman,serif" font-size="14.00">B1</text>
<text text-anchor="start" x="8" y="-8.3" font-family="Times New Roman,serif" font-size="14.00">i++;</text>
</g>
<!-- Node0xe1039f8 -->
<g id="node4" class="node">
<title>Node0xe1039f8</title>
<polygon fill="none" stroke="black" points="39,-166.5 39,-204.5 125,-204.5 125,-166.5 39,-166.5"/>
<text text-anchor="start" x="47" y="-189.3" font-family="Times New Roman,serif" font-size="14.00">B3</text>
<text text-anchor="start" x="47" y="-174.3" font-family="Times New Roman,serif" font-size="14.00">for ( i &lt; 10 )</text>
</g>
<!-- Node0xe1036c8&#45;&gt;Node0xe1039f8 -->
<g id="edge1" class="edge">
<title>Node0xe1036c8&#45;&gt;Node0xe1039f8</title>
<path fill="none" stroke="black" d="M25.58,-38.48C24.68,-57.93 25.02,-89.56 34,-115 39.5,-130.58 49.45,-145.91 58.88,-158.18"/>
<polygon fill="black" stroke="black" points="56.59,-159.93 65.57,-165.55 62.05,-155.55 56.59,-159.93"/>
</g>
<!-- Node0xe1037a0 -->
<g id="node3" class="node">
<title>Node0xe1037a0</title>
<polygon fill="none" stroke="black" points="139,-76.5 139,-114.5 219,-114.5 219,-76.5 139,-76.5"/>
<text text-anchor="start" x="147" y="-99.3" font-family="Times New Roman,serif" font-size="14.00">B2</text>
<text text-anchor="start" x="147" y="-84.3" font-family="Times New Roman,serif" font-size="14.00">a[i] = i + 1;</text>
</g>
<!-- Node0xe1037a0&#45;&gt;Node0xe1036c8 -->
<g id="edge2" class="edge">
<title>Node0xe1037a0&#45;&gt;Node0xe1036c8</title>
<path fill="none" stroke="black" d="M142.21,-76.59C118.37,-64.98 87.46,-49.93 63.65,-38.34"/>
<polygon fill="black" stroke="black" points="65.45,-34.84 54.93,-33.61 62.39,-41.13 65.45,-34.84"/>
</g>
<!-- Node0xe1039f8&#45;&gt;Node0xe1035f0 -->
<g id="edge4" class="edge">
<title>Node0xe1039f8&#45;&gt;Node0xe1035f0</title>
<path fill="none" stroke="black" d="M82,-166.69C82,-154.53 82,-138.17 82,-124.3"/>
<polygon fill="black" stroke="black" points="85.5,-124.39 82,-114.39 78.5,-124.39 85.5,-124.39"/>
<text text-anchor="middle" x="97" y="-136.8" font-family="Times New Roman,serif" font-size="14.00"> false</text>
</g>
<!-- Node0xe1039f8&#45;&gt;Node0xe1037a0 -->
<g id="edge3" class="edge">
<title>Node0xe1039f8&#45;&gt;Node0xe1037a0</title>
<path fill="none" stroke="black" d="M101.63,-166.69C115.96,-153.69 135.58,-135.89 151.47,-121.47"/>
<polygon fill="black" stroke="black" points="153.35,-124.59 158.4,-115.28 148.64,-119.41 153.35,-124.59"/>
<text text-anchor="middle" x="149.5" y="-136.8" font-family="Times New Roman,serif" font-size="14.00"> true</text>
</g>
<!-- Node0xe103c18 -->
<g id="node5" class="node">
<title>Node0xe103c18</title>
<polygon fill="none" stroke="black" points="36,-394.5 36,-430.5 128,-430.5 128,-394.5 36,-394.5"/>
<text text-anchor="start" x="44" y="-408.8" font-family="Times New Roman,serif" font-size="14.00">B5 (ENTRY)</text>
</g>
<!-- B4&#45;0 -->
<g id="node6" class="node">
<title>B4&#45;0</title>
<polygon fill="none" stroke="black" points="49,-318.5 49,-356.5 115,-356.5 115,-318.5 49,-318.5"/>
<text text-anchor="start" x="57" y="-341.3" font-family="Times New Roman,serif" font-size="14.00">B4&#45;0</text>
<text text-anchor="middle" x="82" y="-326.3" font-family="Times New Roman,serif" font-size="14.00">int a[10];</text>
</g>
<!-- Node0xe103c18&#45;&gt;B4&#45;0 -->
<g id="edge5" class="edge">
<title>Node0xe103c18&#45;&gt;B4&#45;0</title>
<path fill="none" stroke="black" d="M82,-394.57C82,-386.42 82,-376.43 82,-367.15"/>
<polygon fill="black" stroke="black" points="85.5,-367.36 82,-357.36 78.5,-367.36 85.5,-367.36"/>
</g>
<!-- B4&#45;1 -->
<g id="node7" class="node">
<title>B4&#45;1</title>
<polygon fill="none" stroke="black" points="50.5,-242.5 50.5,-280.5 113.5,-280.5 113.5,-242.5 50.5,-242.5"/>
<text text-anchor="start" x="58.5" y="-265.3" font-family="Times New Roman,serif" font-size="14.00">B4&#45;1</text>
<text text-anchor="middle" x="82" y="-250.3" font-family="Times New Roman,serif" font-size="14.00">int i = 0;</text>
</g>
<!-- B4&#45;0&#45;&gt;B4&#45;1 -->
<g id="edge6" class="edge">
<title>B4&#45;0&#45;&gt;B4&#45;1</title>
<path fill="none" stroke="black" d="M82,-318.59C82,-310.32 82,-300.29 82,-291.02"/>
<polygon fill="black" stroke="black" points="85.5,-291.25 82,-281.25 78.5,-291.25 85.5,-291.25"/>
</g>
<!-- B4&#45;1&#45;&gt;Node0xe1039f8 -->
<g id="edge7" class="edge">
<title>B4&#45;1&#45;&gt;Node0xe1039f8</title>
<path fill="none" stroke="black" d="M82,-242.59C82,-234.32 82,-224.29 82,-215.02"/>
<polygon fill="black" stroke="black" points="85.5,-215.25 82,-205.25 78.5,-215.25 85.5,-215.25"/>
</g>
</g>
</svg>
