<?xml version="1.0" encoding="UTF-8" standalone="no"?>
<!DOCTYPE svg PUBLIC "-//W3C//DTD SVG 1.1//EN"
 "http://www.w3.org/Graphics/SVG/1.1/DTD/svg11.dtd">
<!-- Generated by graphviz version 2.43.0 (0)
 -->
<!-- Title: G Pages: 1 -->
<svg width="1247pt" height="341pt"
 viewBox="0.00 0.00 1246.79 341.00" xmlns="http://www.w3.org/2000/svg" xmlns:xlink="http://www.w3.org/1999/xlink">
<g id="graph0" class="graph" transform="scale(1 1) rotate(0) translate(4 337)">
<title>G</title>
<polygon fill="white" stroke="transparent" points="-4,4 -4,-337 1242.79,-337 1242.79,4 -4,4"/>
<!-- node1 -->
<g id="node1" class="node">
<title>node1</title>
<polygon fill="lightgreen" stroke="black" points="793.89,-171 472.89,-171 472.89,-135 793.89,-135 793.89,-171"/>
<text text-anchor="middle" x="633.39" y="-149.3" font-family="Times,serif" font-size="14.00">Filter: test_case_source/main.c:3:write_file</text>
</g>
<!-- node2 -->
<g id="node2" class="node">
<title>node2</title>
<polygon fill="lightgreen" stroke="black" points="1140.39,-252 856.39,-252 856.39,-216 1140.39,-216 1140.39,-252"/>
<text text-anchor="middle" x="998.39" y="-230.3" font-family="Times,serif" font-size="14.00">Filter: /usr/include/stdio.h:350:fprintf</text>
</g>
<!-- node1&#45;&gt;node2 -->
<g id="edge1" class="edge">
<title>node1&#45;&gt;node2</title>
<path fill="none" stroke="black" d="M633.79,-171.13C633.79,-193.75 633.79,-229.5 633.79,-229.5 633.79,-229.5 846.38,-229.5 846.38,-229.5"/>
<polygon fill="black" stroke="black" points="846.38,-233 856.38,-229.5 846.38,-226 846.38,-233"/>
</g>
<!-- node3 -->
<g id="node3" class="node">
<title>node3</title>
<polygon fill="lightgreen" stroke="black" points="1135.89,-198 860.89,-198 860.89,-162 1135.89,-162 1135.89,-198"/>
<text text-anchor="middle" x="998.39" y="-176.3" font-family="Times,serif" font-size="14.00">Filter: /usr/include/stdio.h:655:fputs</text>
</g>
<!-- node1&#45;&gt;node3 -->
<g id="edge2" class="edge">
<title>node1&#45;&gt;node3</title>
<path fill="none" stroke="black" d="M794.02,-166.5C794.02,-166.5 850.83,-166.5 850.83,-166.5"/>
<polygon fill="black" stroke="black" points="850.83,-170 860.83,-166.5 850.83,-163 850.83,-170"/>
</g>
<!-- node4 -->
<g id="node4" class="node">
<title>node4</title>
<polygon fill="lightgreen" stroke="black" points="1138.39,-144 858.39,-144 858.39,-108 1138.39,-108 1138.39,-144"/>
<text text-anchor="middle" x="998.39" y="-122.3" font-family="Times,serif" font-size="14.00">Filter: /usr/include/stdio.h:178:fclose</text>
</g>
<!-- node1&#45;&gt;node4 -->
<g id="edge3" class="edge">
<title>node1&#45;&gt;node4</title>
<path fill="none" stroke="black" d="M794.02,-141C794.02,-141 848.3,-141 848.3,-141"/>
<polygon fill="black" stroke="black" points="848.3,-144.5 858.3,-141 848.3,-137.5 848.3,-144.5"/>
</g>
<!-- node5 -->
<g id="node5" class="node">
<title>node5</title>
<polygon fill="lightgreen" stroke="black" points="1137.39,-90 859.39,-90 859.39,-54 1137.39,-54 1137.39,-90"/>
<text text-anchor="middle" x="998.39" y="-68.3" font-family="Times,serif" font-size="14.00">Filter: /usr/include/stdio.h:258:fopen</text>
</g>
<!-- node1&#45;&gt;node5 -->
<g id="edge4" class="edge">
<title>node1&#45;&gt;node5</title>
<path fill="none" stroke="black" d="M793.97,-138C820.09,-138 838.79,-138 838.79,-138 838.79,-138 838.79,-85.5 838.79,-85.5 838.79,-85.5 849.33,-85.5 849.33,-85.5"/>
<polygon fill="black" stroke="black" points="849.33,-89 859.33,-85.5 849.33,-82 849.33,-89"/>
</g>
<!-- node6 -->
<g id="node6" class="node">
<title>node6</title>
<polygon fill="lightgreen" stroke="black" points="812.89,-117 453.89,-117 453.89,-81 812.89,-81 812.89,-117"/>
<text text-anchor="middle" x="633.39" y="-95.3" font-family="Times,serif" font-size="14.00">Filter: test_case_source/main.c:12:write_to_cmd</text>
</g>
<!-- node7 -->
<g id="node7" class="node">
<title>node7</title>
<polygon fill="lightgreen" stroke="black" points="1137.89,-36 858.89,-36 858.89,0 1137.89,0 1137.89,-36"/>
<text text-anchor="middle" x="998.39" y="-14.3" font-family="Times,serif" font-size="14.00">Filter: /usr/include/stdio.h:356:printf</text>
</g>
<!-- node6&#45;&gt;node7 -->
<g id="edge5" class="edge">
<title>node6&#45;&gt;node7</title>
<path fill="none" stroke="black" d="M738.79,-80.91C738.79,-60.92 738.79,-31.5 738.79,-31.5 738.79,-31.5 848.71,-31.5 848.71,-31.5"/>
<polygon fill="black" stroke="black" points="848.71,-35 858.71,-31.5 848.71,-28 848.71,-35"/>
</g>
<!-- Sink_0 -->
<g id="node13" class="node">
<title>Sink_0</title>
<ellipse fill="lightyellow" stroke="black" cx="1207.59" cy="-18" rx="31.4" ry="18"/>
<text text-anchor="middle" x="1207.59" y="-14.3" font-family="Times,serif" font-size="14.00">Sink</text>
</g>
<!-- node7&#45;&gt;Sink_0 -->
<g id="edge13" class="edge">
<title>node7&#45;&gt;Sink_0</title>
<path fill="none" stroke="black" d="M1137.93,-18C1137.93,-18 1166.14,-18 1166.14,-18"/>
<polygon fill="black" stroke="black" points="1166.14,-21.5 1176.14,-18 1166.14,-14.5 1166.14,-21.5"/>
</g>
<!-- node8 -->
<g id="node8" class="node">
<title>node8</title>
<polygon fill="lightgreen" stroke="black" points="820.39,-279 446.39,-279 446.39,-243 820.39,-243 820.39,-279"/>
<text text-anchor="middle" x="633.39" y="-257.3" font-family="Times,serif" font-size="14.00">Filter: test_case_source/main.c:16:read_from_cmd</text>
</g>
<!-- node9 -->
<g id="node9" class="node">
<title>node9</title>
<polygon fill="lightgreen" stroke="black" points="1136.39,-306 860.39,-306 860.39,-270 1136.39,-270 1136.39,-306"/>
<text text-anchor="middle" x="998.39" y="-284.3" font-family="Times,serif" font-size="14.00">Filter: /usr/include/stdio.h:437:scanf</text>
</g>
<!-- node8&#45;&gt;node9 -->
<g id="edge6" class="edge">
<title>node8&#45;&gt;node9</title>
<path fill="none" stroke="black" d="M820.44,-273C820.44,-273 850.26,-273 850.26,-273"/>
<polygon fill="black" stroke="black" points="850.26,-276.5 860.26,-273 850.26,-269.5 850.26,-276.5"/>
</g>
<!-- node9&#45;&gt;node8 -->
<g id="edge7" class="edge">
<title>node9&#45;&gt;node8</title>
<path fill="none" stroke="black" d="M860.14,-276C860.14,-276 830.43,-276 830.43,-276"/>
<polygon fill="black" stroke="black" points="830.43,-272.5 820.43,-276 830.43,-279.5 830.43,-272.5"/>
</g>
<!-- node10 -->
<g id="node10" class="node">
<title>node10</title>
<polygon fill="lightgreen" stroke="black" points="410.39,-144 111.39,-144 111.39,-108 410.39,-108 410.39,-144"/>
<text text-anchor="middle" x="260.89" y="-122.3" font-family="Times,serif" font-size="14.00">Filter: test_case_source/main.c:21:main</text>
</g>
<!-- node10&#45;&gt;node1 -->
<g id="edge8" class="edge">
<title>node10&#45;&gt;node1</title>
<path fill="none" stroke="black" d="M410.53,-138C410.53,-138 462.62,-138 462.62,-138"/>
<polygon fill="black" stroke="black" points="462.62,-141.5 472.62,-138 462.62,-134.5 462.62,-141.5"/>
</g>
<!-- node10&#45;&gt;node6 -->
<g id="edge10" class="edge">
<title>node10&#45;&gt;node6</title>
<path fill="none" stroke="black" d="M410.53,-112.5C410.53,-112.5 443.85,-112.5 443.85,-112.5"/>
<polygon fill="black" stroke="black" points="443.85,-116 453.85,-112.5 443.85,-109 443.85,-116"/>
</g>
<!-- node10&#45;&gt;node8 -->
<g id="edge9" class="edge">
<title>node10&#45;&gt;node8</title>
<path fill="none" stroke="black" d="M410.52,-141C434.05,-141 450.79,-141 450.79,-141 450.79,-141 450.79,-232.77 450.79,-232.77"/>
<polygon fill="black" stroke="black" points="447.29,-232.77 450.79,-242.77 454.29,-232.77 447.29,-232.77"/>
</g>
<!-- Sink_1 -->
<g id="node14" class="node">
<title>Sink_1</title>
<ellipse fill="lightyellow" stroke="black" cx="633.39" cy="-45" rx="31.4" ry="18"/>
<text text-anchor="middle" x="633.39" y="-41.3" font-family="Times,serif" font-size="14.00">Sink</text>
</g>
<!-- node10&#45;&gt;Sink_1 -->
<g id="edge14" class="edge">
<title>node10&#45;&gt;Sink_1</title>
<path fill="none" stroke="black" d="M261.79,-107.62C261.79,-83.72 261.79,-45 261.79,-45 261.79,-45 592.03,-45 592.03,-45"/>
<polygon fill="black" stroke="black" points="592.03,-48.5 602.03,-45 592.03,-41.5 592.03,-48.5"/>
</g>
<!-- Pump_0 -->
<g id="node11" class="node">
<title>Pump_0</title>
<ellipse fill="lightblue" stroke="black" cx="633.39" cy="-315" rx="37.89" ry="18"/>
<text text-anchor="middle" x="633.39" y="-311.3" font-family="Times,serif" font-size="14.00">Pump</text>
</g>
<!-- Pump_0&#45;&gt;node9 -->
<g id="edge11" class="edge">
<title>Pump_0&#45;&gt;node9</title>
<path fill="none" stroke="black" d="M658.48,-301.5C658.48,-301.5 850.24,-301.5 850.24,-301.5"/>
<polygon fill="black" stroke="black" points="850.24,-305 860.24,-301.5 850.24,-298 850.24,-305"/>
</g>
<!-- Pump_1 -->
<g id="node12" class="node">
<title>Pump_1</title>
<ellipse fill="lightblue" stroke="black" cx="37.7" cy="-126" rx="37.89" ry="18"/>
<text text-anchor="middle" x="37.7" y="-122.3" font-family="Times,serif" font-size="14.00">Pump</text>
</g>
<!-- Pump_1&#45;&gt;node10 -->
<g id="edge12" class="edge">
<title>Pump_1&#45;&gt;node10</title>
<path fill="none" stroke="black" d="M75.56,-126C75.56,-126 101.25,-126 101.25,-126"/>
<polygon fill="black" stroke="black" points="101.25,-129.5 111.25,-126 101.25,-122.5 101.25,-129.5"/>
</g>
</g>
</svg>
