<?xml version="1.0" encoding="UTF-8" standalone="no"?>
<!DOCTYPE svg PUBLIC "-//W3C//DTD SVG 1.1//EN"
 "http://www.w3.org/Graphics/SVG/1.1/DTD/svg11.dtd">
<!-- Generated by graphviz version 2.43.0 (0)
 -->
<!-- Title: G Pages: 1 -->
<svg width="1169pt" height="116pt"
 viewBox="0.00 0.00 1168.50 116.00" xmlns="http://www.w3.org/2000/svg" xmlns:xlink="http://www.w3.org/1999/xlink">
<g id="graph0" class="graph" transform="scale(1 1) rotate(0) translate(4 112)">
<title>G</title>
<polygon fill="white" stroke="transparent" points="-4,4 -4,-112 1164.5,-112 1164.5,4 -4,4"/>
<!-- node1 -->
<g id="node1" class="node">
<title>node1</title>
<polygon fill="none" stroke="black" points="1160.5,-36 816.5,-36 816.5,0 1160.5,0 1160.5,-36"/>
<text text-anchor="middle" x="988.5" y="-14.3" font-family="Times,serif" font-size="14.00">Function: test_case_source/main.c:3:write_file</text>
</g>
<!-- node6 -->
<g id="node2" class="node">
<title>node6</title>
<polygon fill="none" stroke="black" points="383,-36 0,-36 0,0 383,0 383,-36"/>
<text text-anchor="middle" x="191.5" y="-14.3" font-family="Times,serif" font-size="14.00">Function: test_case_source/main.c:12:write_to_cmd</text>
</g>
<!-- node10 -->
<g id="node4" class="node">
<title>node10</title>
<polygon fill="none" stroke="black" points="761,-108 438,-108 438,-72 761,-72 761,-108"/>
<text text-anchor="middle" x="599.5" y="-86.3" font-family="Times,serif" font-size="14.00">Function: test_case_source/main.c:21:main</text>
</g>
<!-- node6&#45;&gt;node10 -->
<g id="edge1" class="edge">
<title>node6&#45;&gt;node10</title>
<path fill="none" stroke="blue" stroke-dasharray="1,5" d="M296.77,-36.05C358.09,-46.38 435.06,-59.58 496.07,-70.21"/>
<polygon fill="blue" stroke="blue" points="495.65,-73.69 506.1,-71.97 496.85,-66.8 495.65,-73.69"/>
</g>
<!-- node8 -->
<g id="node3" class="node">
<title>node8</title>
<polygon fill="none" stroke="black" points="798,-36 401,-36 401,0 798,0 798,-36"/>
<text text-anchor="middle" x="599.5" y="-14.3" font-family="Times,serif" font-size="14.00">Function: test_case_source/main.c:16:read_from_cmd</text>
</g>
<!-- node8&#45;&gt;node10 -->
<g id="edge2" class="edge">
<title>node8&#45;&gt;node10</title>
<path fill="none" stroke="blue" stroke-dasharray="1,5" d="M605.4,-36.1C606.2,-43.79 606.44,-53.05 606.1,-61.67"/>
<polygon fill="blue" stroke="blue" points="602.61,-61.48 605.42,-71.7 609.59,-61.96 602.61,-61.48"/>
</g>
<!-- node10&#45;&gt;node1 -->
<g id="edge3" class="edge">
<title>node10&#45;&gt;node1</title>
<path fill="none" stroke="red" d="M694.16,-71.97C751.46,-61.66 824.61,-48.49 883.65,-37.87"/>
<polygon fill="red" stroke="red" points="884.53,-41.27 893.75,-36.05 883.29,-34.38 884.53,-41.27"/>
</g>
<!-- node10&#45;&gt;node6 -->
<g id="edge5" class="edge">
<title>node10&#45;&gt;node6</title>
<path fill="none" stroke="red" d="M494.33,-71.97C433.02,-61.63 356.05,-48.44 295.03,-37.8"/>
<polygon fill="red" stroke="red" points="295.44,-34.32 284.99,-36.05 294.24,-41.22 295.44,-34.32"/>
</g>
<!-- node10&#45;&gt;node8 -->
<g id="edge4" class="edge">
<title>node10&#45;&gt;node8</title>
<path fill="none" stroke="red" d="M593.58,-71.7C592.79,-63.98 592.56,-54.71 592.9,-46.11"/>
<polygon fill="red" stroke="red" points="596.4,-46.32 593.6,-36.1 589.42,-45.84 596.4,-46.32"/>
</g>
</g>
</svg>
