<?xml version="1.0" encoding="UTF-8" standalone="no"?>
<!DOCTYPE svg PUBLIC "-//W3C//DTD SVG 1.1//EN"
 "http://www.w3.org/Graphics/SVG/1.1/DTD/svg11.dtd">
<!-- Generated by graphviz version 2.49.1 (20210923.0004)
 -->
<!-- Title: D Pages: 1 -->
<svg width="530pt" height="404pt"
 viewBox="0.00 0.00 530.00 404.00" xmlns="http://www.w3.org/2000/svg" xmlns:xlink="http://www.w3.org/1999/xlink">
<g id="graph0" class="graph" transform="scale(1 1) rotate(0) translate(4 400)">
<title>D</title>
<polygon fill="#2e3e56" stroke="transparent" points="-4,4 -4,-400 526,-400 526,4 -4,4"/>
<!-- A -->
<g id="node1" class="node">
<title>A</title>
<ellipse fill="#edad56" stroke="#edad56" stroke-width="3" cx="261" cy="-360" rx="36" ry="36"/>
<text text-anchor="middle" x="261" y="-356.3" font-family="Times New Roman,serif" font-size="14.00">A</text>
</g>
<!-- B -->
<g id="node2" class="node">
<title>B</title>
<ellipse fill="#edad56" stroke="#edad56" stroke-width="3" cx="396" cy="-252" rx="36" ry="36"/>
<text text-anchor="middle" x="396" y="-248.3" font-family="Times New Roman,serif" font-size="14.00">B</text>
</g>
<!-- A&#45;&gt;B -->
<g id="edge1" class="edge">
<title>A&#45;&gt;B</title>
<path fill="none" stroke="#fcfcfc" stroke-width="3" d="M288.97,-337.04C309.61,-320.83 337.85,-298.66 360.15,-281.15"/>
<polygon fill="#fcfcfc" stroke="#fcfcfc" stroke-width="3" points="362.36,-283.86 368.06,-274.94 358.04,-278.36 362.36,-283.86"/>
</g>
<!-- C -->
<g id="node3" class="node">
<title>C</title>
<ellipse fill="#edad56" stroke="#edad56" stroke-width="3" cx="306" cy="-252" rx="36" ry="36"/>
<text text-anchor="middle" x="306" y="-248.3" font-family="Times New Roman,serif" font-size="14.00">C</text>
</g>
<!-- A&#45;&gt;C -->
<g id="edge2" class="edge">
<title>A&#45;&gt;C</title>
<path fill="none" stroke="#fcfcfc" stroke-width="3" d="M274.75,-326.62C278.98,-316.65 283.71,-305.51 288.17,-294.99"/>
<polygon fill="#fcfcfc" stroke="#fcfcfc" stroke-width="3" points="291.5,-296.12 292.18,-285.55 285.05,-293.38 291.5,-296.12"/>
</g>
<!-- D -->
<g id="node4" class="node">
<title>D</title>
<ellipse fill="#edad56" stroke="#edad56" stroke-width="3" cx="216" cy="-252" rx="36" ry="36"/>
<text text-anchor="middle" x="216" y="-248.3" font-family="Times New Roman,serif" font-size="14.00">D</text>
</g>
<!-- A&#45;&gt;D -->
<g id="edge3" class="edge">
<title>A&#45;&gt;D</title>
<path fill="none" stroke="#fcfcfc" stroke-width="3" d="M247.25,-326.62C243.02,-316.65 238.29,-305.51 233.83,-294.99"/>
<polygon fill="#fcfcfc" stroke="#fcfcfc" stroke-width="3" points="236.95,-293.38 229.82,-285.55 230.5,-296.12 236.95,-293.38"/>
</g>
<!-- I -->
<g id="node9" class="node">
<title>I</title>
<ellipse fill="#edad56" stroke="#edad56" stroke-width="3" cx="126" cy="-252" rx="36" ry="36"/>
<text text-anchor="middle" x="126" y="-248.3" font-family="Times New Roman,serif" font-size="14.00">I</text>
</g>
<!-- A&#45;&gt;I -->
<g id="edge9" class="edge">
<title>A&#45;&gt;I</title>
<path fill="none" stroke="#fcfcfc" stroke-width="3" d="M233.03,-337.04C212.39,-320.83 184.15,-298.66 161.85,-281.15"/>
<polygon fill="#fcfcfc" stroke="#fcfcfc" stroke-width="3" points="163.96,-278.36 153.94,-274.94 159.64,-283.86 163.96,-278.36"/>
</g>
<!-- F -->
<g id="node5" class="node">
<title>F</title>
<ellipse fill="#edad56" stroke="#edad56" stroke-width="3" cx="396" cy="-144" rx="36" ry="36"/>
<text text-anchor="middle" x="396" y="-140.3" font-family="Times New Roman,serif" font-size="14.00">F</text>
</g>
<!-- B&#45;&gt;F -->
<g id="edge4" class="edge">
<title>B&#45;&gt;F</title>
<path fill="none" stroke="#fcfcfc" stroke-width="3" d="M396,-216C396,-207.85 396,-199.06 396,-190.54"/>
<polygon fill="#fcfcfc" stroke="#fcfcfc" stroke-width="3" points="399.5,-190.33 396,-180.33 392.5,-190.33 399.5,-190.33"/>
</g>
<!-- C&#45;&gt;F -->
<g id="edge5" class="edge">
<title>C&#45;&gt;F</title>
<path fill="none" stroke="#fcfcfc" stroke-width="3" d="M328.94,-223.98C340.37,-210.52 354.31,-194.1 366.52,-179.72"/>
<polygon fill="#fcfcfc" stroke="#fcfcfc" stroke-width="3" points="369.29,-181.86 373.1,-171.97 363.96,-177.33 369.29,-181.86"/>
</g>
<!-- L -->
<g id="node12" class="node">
<title>L</title>
<ellipse fill="#edad56" stroke="#edad56" stroke-width="3" cx="216" cy="-144" rx="36" ry="36"/>
<text text-anchor="middle" x="216" y="-140.3" font-family="Times New Roman,serif" font-size="14.00">L</text>
</g>
<!-- C&#45;&gt;L -->
<g id="edge13" class="edge">
<title>C&#45;&gt;L</title>
<path fill="none" stroke="#fcfcfc" stroke-width="3" d="M283.06,-223.98C271.63,-210.52 257.69,-194.1 245.48,-179.72"/>
<polygon fill="#fcfcfc" stroke="#fcfcfc" stroke-width="3" points="248.04,-177.33 238.9,-171.97 242.71,-181.86 248.04,-177.33"/>
</g>
<!-- G -->
<g id="node7" class="node">
<title>G</title>
<ellipse fill="#edad56" stroke="#edad56" stroke-width="3" cx="396" cy="-36" rx="36" ry="36"/>
<text text-anchor="middle" x="396" y="-32.3" font-family="Times New Roman,serif" font-size="14.00">G</text>
</g>
<!-- F&#45;&gt;G -->
<g id="edge7" class="edge">
<title>F&#45;&gt;G</title>
<path fill="none" stroke="#fcfcfc" stroke-width="3" d="M396,-108C396,-99.85 396,-91.06 396,-82.54"/>
<polygon fill="#fcfcfc" stroke="#fcfcfc" stroke-width="3" points="399.5,-82.33 396,-72.33 392.5,-82.33 399.5,-82.33"/>
</g>
<!-- H -->
<g id="node8" class="node">
<title>H</title>
<ellipse fill="#edad56" stroke="#edad56" stroke-width="3" cx="486" cy="-36" rx="36" ry="36"/>
<text text-anchor="middle" x="486" y="-32.3" font-family="Times New Roman,serif" font-size="14.00">H</text>
</g>
<!-- F&#45;&gt;H -->
<g id="edge8" class="edge">
<title>F&#45;&gt;H</title>
<path fill="none" stroke="#fcfcfc" stroke-width="3" d="M418.94,-115.98C430.37,-102.52 444.31,-86.1 456.52,-71.72"/>
<polygon fill="#fcfcfc" stroke="#fcfcfc" stroke-width="3" points="459.29,-73.86 463.1,-63.97 453.96,-69.33 459.29,-73.86"/>
</g>
<!-- P -->
<g id="node16" class="node">
<title>P</title>
<ellipse fill="#edad56" stroke="#edad56" stroke-width="3" cx="306" cy="-36" rx="36" ry="36"/>
<text text-anchor="middle" x="306" y="-32.3" font-family="Times New Roman,serif" font-size="14.00">P</text>
</g>
<!-- F&#45;&gt;P -->
<g id="edge18" class="edge">
<title>F&#45;&gt;P</title>
<path fill="none" stroke="#fcfcfc" stroke-width="3" d="M373.06,-115.98C361.63,-102.52 347.69,-86.1 335.48,-71.72"/>
<polygon fill="#fcfcfc" stroke="#fcfcfc" stroke-width="3" points="338.04,-69.33 328.9,-63.97 332.71,-73.86 338.04,-69.33"/>
</g>
<!-- E -->
<g id="node6" class="node">
<title>E</title>
<ellipse fill="#edad56" stroke="#edad56" stroke-width="3" cx="486" cy="-252" rx="36" ry="36"/>
<text text-anchor="middle" x="486" y="-248.3" font-family="Times New Roman,serif" font-size="14.00">E</text>
</g>
<!-- E&#45;&gt;F -->
<g id="edge6" class="edge">
<title>E&#45;&gt;F</title>
<path fill="none" stroke="#fcfcfc" stroke-width="3" d="M463.06,-223.98C451.63,-210.52 437.69,-194.1 425.48,-179.72"/>
<polygon fill="#fcfcfc" stroke="#fcfcfc" stroke-width="3" points="428.04,-177.33 418.9,-171.97 422.71,-181.86 428.04,-177.33"/>
</g>
<!-- J -->
<g id="node10" class="node">
<title>J</title>
<ellipse fill="#edad56" stroke="#edad56" stroke-width="3" cx="126" cy="-144" rx="36" ry="36"/>
<text text-anchor="middle" x="126" y="-140.3" font-family="Times New Roman,serif" font-size="14.00">J</text>
</g>
<!-- I&#45;&gt;J -->
<g id="edge10" class="edge">
<title>I&#45;&gt;J</title>
<path fill="none" stroke="#fcfcfc" stroke-width="3" d="M126,-216C126,-207.85 126,-199.06 126,-190.54"/>
<polygon fill="#fcfcfc" stroke="#fcfcfc" stroke-width="3" points="129.5,-190.33 126,-180.33 122.5,-190.33 129.5,-190.33"/>
</g>
<!-- K -->
<g id="node11" class="node">
<title>K</title>
<ellipse fill="#edad56" stroke="#edad56" stroke-width="3" cx="36" cy="-144" rx="36" ry="36"/>
<text text-anchor="middle" x="36" y="-140.3" font-family="Times New Roman,serif" font-size="14.00">K</text>
</g>
<!-- I&#45;&gt;K -->
<g id="edge11" class="edge">
<title>I&#45;&gt;K</title>
<path fill="none" stroke="#fcfcfc" stroke-width="3" d="M103.06,-223.98C91.63,-210.52 77.69,-194.1 65.48,-179.72"/>
<polygon fill="#fcfcfc" stroke="#fcfcfc" stroke-width="3" points="68.04,-177.33 58.9,-171.97 62.71,-181.86 68.04,-177.33"/>
</g>
<!-- I&#45;&gt;L -->
<g id="edge12" class="edge">
<title>I&#45;&gt;L</title>
<path fill="none" stroke="#fcfcfc" stroke-width="3" d="M148.94,-223.98C160.37,-210.52 174.31,-194.1 186.52,-179.72"/>
<polygon fill="#fcfcfc" stroke="#fcfcfc" stroke-width="3" points="189.29,-181.86 193.1,-171.97 183.96,-177.33 189.29,-181.86"/>
</g>
<!-- M -->
<g id="node13" class="node">
<title>M</title>
<ellipse fill="#edad56" stroke="#edad56" stroke-width="3" cx="36" cy="-36" rx="36" ry="36"/>
<text text-anchor="middle" x="36" y="-32.3" font-family="Times New Roman,serif" font-size="14.00">M</text>
</g>
<!-- L&#45;&gt;M -->
<g id="edge14" class="edge">
<title>L&#45;&gt;M</title>
<path fill="none" stroke="#fcfcfc" stroke-width="3" d="M188.77,-119.88C183.1,-115.63 177.01,-111.45 171,-108 133.63,-86.56 118.37,-93.44 81,-72 77.81,-70.17 74.59,-68.13 71.43,-65.99"/>
<polygon fill="#fcfcfc" stroke="#fcfcfc" stroke-width="3" points="73.4,-63.09 63.23,-60.12 69.33,-68.78 73.4,-63.09"/>
</g>
<!-- N -->
<g id="node14" class="node">
<title>N</title>
<ellipse fill="#edad56" stroke="#edad56" stroke-width="3" cx="126" cy="-36" rx="36" ry="36"/>
<text text-anchor="middle" x="126" y="-32.3" font-family="Times New Roman,serif" font-size="14.00">N</text>
</g>
<!-- L&#45;&gt;N -->
<g id="edge15" class="edge">
<title>L&#45;&gt;N</title>
<path fill="none" stroke="#fcfcfc" stroke-width="3" d="M193.06,-115.98C181.63,-102.52 167.69,-86.1 155.48,-71.72"/>
<polygon fill="#fcfcfc" stroke="#fcfcfc" stroke-width="3" points="158.04,-69.33 148.9,-63.97 152.71,-73.86 158.04,-69.33"/>
</g>
<!-- O -->
<g id="node15" class="node">
<title>O</title>
<ellipse fill="#edad56" stroke="#edad56" stroke-width="3" cx="216" cy="-36" rx="36" ry="36"/>
<text text-anchor="middle" x="216" y="-32.3" font-family="Times New Roman,serif" font-size="14.00">O</text>
</g>
<!-- L&#45;&gt;O -->
<g id="edge16" class="edge">
<title>L&#45;&gt;O</title>
<path fill="none" stroke="#fcfcfc" stroke-width="3" d="M216,-108C216,-99.85 216,-91.06 216,-82.54"/>
<polygon fill="#fcfcfc" stroke="#fcfcfc" stroke-width="3" points="219.5,-82.33 216,-72.33 212.5,-82.33 219.5,-82.33"/>
</g>
<!-- L&#45;&gt;P -->
<g id="edge17" class="edge">
<title>L&#45;&gt;P</title>
<path fill="none" stroke="#fcfcfc" stroke-width="3" d="M238.94,-115.98C250.37,-102.52 264.31,-86.1 276.52,-71.72"/>
<polygon fill="#fcfcfc" stroke="#fcfcfc" stroke-width="3" points="279.29,-73.86 283.1,-63.97 273.96,-69.33 279.29,-73.86"/>
</g>
</g>
</svg>
