<?xml version="1.0" encoding="UTF-8" standalone="no"?>
<!DOCTYPE svg PUBLIC "-//W3C//DTD SVG 1.1//EN"
 "http://www.w3.org/Graphics/SVG/1.1/DTD/svg11.dtd">
<!-- Generated by graphviz version 2.49.1 (20210923.0004)
 -->
<!-- Title: G Pages: 1 -->
<svg width="1277pt" height="354pt"
 viewBox="0.00 0.00 1277.00 354.00" xmlns="http://www.w3.org/2000/svg" xmlns:xlink="http://www.w3.org/1999/xlink">
<g id="graph0" class="graph" transform="scale(1 1) rotate(0) translate(4 350)">
<title>G</title>
<polygon fill="white" stroke="transparent" points="-4,4 -4,-350 1273,-350 1273,4 -4,4"/>
<!-- FUN10 -->
<g id="node1" class="node">
<title>FUN10</title>
<polygon fill="lightgreen" stroke="black" points="175.5,-97 3.5,-97 3.5,-61 175.5,-61 175.5,-97"/>
<text text-anchor="middle" x="89.5" y="-75.3" font-family="Times New Roman,serif" font-size="14.00">Filter: Library function: time</text>
</g>
<!-- FUN8 -->
<g id="node12" class="node">
<title>FUN8</title>
<polygon fill="lightgreen" stroke="black" points="337,-124 215,-124 215,-88 337,-88 337,-124"/>
<text text-anchor="middle" x="276" y="-102.3" font-family="Times New Roman,serif" font-size="14.00">Filter: main.c: main</text>
</g>
<!-- FUN10&#45;&gt;FUN8 -->
<g id="edge10" class="edge">
<title>FUN10&#45;&gt;FUN8</title>
<path fill="none" stroke="black" d="M175.65,-94C175.65,-94 204.95,-94 204.95,-94"/>
<polygon fill="black" stroke="black" points="204.95,-97.5 214.95,-94 204.95,-90.5 204.95,-97.5"/>
</g>
<!-- FUN7 -->
<g id="node2" class="node">
<title>FUN7</title>
<polygon fill="lightgreen" stroke="black" points="152,-262 27,-262 27,-226 152,-226 152,-262"/>
<text text-anchor="middle" x="89.5" y="-240.3" font-family="Times New Roman,serif" font-size="14.00">Filter: main.c: game</text>
</g>
<!-- FUN3 -->
<g id="node5" class="node">
<title>FUN3</title>
<polygon fill="lightgreen" stroke="black" points="734,-170 594,-170 594,-134 734,-134 734,-170"/>
<text text-anchor="middle" x="664" y="-148.3" font-family="Times New Roman,serif" font-size="14.00">Filter: Init.h: InitBoard</text>
</g>
<!-- FUN7&#45;&gt;FUN3 -->
<g id="edge11" class="edge">
<title>FUN7&#45;&gt;FUN3</title>
<path fill="none" stroke="black" d="M152.03,-230C175.68,-230 197,-230 197,-230 197,-230 197,-160 197,-160 197,-160 583.83,-160 583.83,-160"/>
<polygon fill="black" stroke="black" points="583.83,-163.5 593.83,-160 583.83,-156.5 583.83,-163.5"/>
</g>
<!-- FUN4 -->
<g id="node6" class="node">
<title>FUN4</title>
<polygon fill="lightgreen" stroke="black" points="730.5,-346 597.5,-346 597.5,-310 730.5,-310 730.5,-346"/>
<text text-anchor="middle" x="664" y="-324.3" font-family="Times New Roman,serif" font-size="14.00">Filter: Init.h: SetMine</text>
</g>
<!-- FUN7&#45;&gt;FUN4 -->
<g id="edge12" class="edge">
<title>FUN7&#45;&gt;FUN4</title>
<path fill="none" stroke="black" d="M152.08,-257C300.97,-257 664,-257 664,-257 664,-257 664,-299.72 664,-299.72"/>
<polygon fill="black" stroke="black" points="660.5,-299.72 664,-309.72 667.5,-299.72 660.5,-299.72"/>
</g>
<!-- FUN2 -->
<g id="node7" class="node">
<title>FUN2</title>
<polygon fill="lightgreen" stroke="black" points="740,-224 588,-224 588,-188 740,-188 740,-224"/>
<text text-anchor="middle" x="664" y="-202.3" font-family="Times New Roman,serif" font-size="14.00">Filter: game.h: FindMine</text>
</g>
<!-- FUN7&#45;&gt;FUN2 -->
<g id="edge13" class="edge">
<title>FUN7&#45;&gt;FUN2</title>
<path fill="none" stroke="black" d="M152.25,-238C287.22,-238 593,-238 593,-238 593,-238 593,-234.24 593,-234.24"/>
<polygon fill="black" stroke="black" points="596.5,-234.24 593,-224.24 589.5,-234.24 596.5,-234.24"/>
</g>
<!-- FUN6 -->
<g id="node9" class="node">
<title>FUN6</title>
<polygon fill="lightgreen" stroke="black" points="964,-278 776,-278 776,-242 964,-242 964,-278"/>
<text text-anchor="middle" x="870" y="-256.3" font-family="Times New Roman,serif" font-size="14.00">Filter: Display.h: DisplayBoard</text>
</g>
<!-- FUN7&#45;&gt;FUN6 -->
<g id="edge14" class="edge">
<title>FUN7&#45;&gt;FUN6</title>
<path fill="none" stroke="black" d="M152.05,-252C152.05,-252 765.99,-252 765.99,-252"/>
<polygon fill="black" stroke="black" points="765.99,-255.5 775.99,-252 765.99,-248.5 765.99,-255.5"/>
</g>
<!-- FUN9 -->
<g id="node3" class="node">
<title>FUN9</title>
<polygon fill="lightgreen" stroke="black" points="179,-205 0,-205 0,-169 179,-169 179,-205"/>
<text text-anchor="middle" x="89.5" y="-183.3" font-family="Times New Roman,serif" font-size="14.00">Filter: Library function: srand</text>
</g>
<!-- FUN5 -->
<g id="node4" class="node">
<title>FUN5</title>
<polygon fill="lightgreen" stroke="black" points="154,-36 25,-36 25,0 154,0 154,-36"/>
<text text-anchor="middle" x="89.5" y="-14.3" font-family="Times New Roman,serif" font-size="14.00">Filter: menu.h: menu</text>
</g>
<!-- FUN11 -->
<g id="node13" class="node">
<title>FUN11</title>
<polygon fill="lightgreen" stroke="black" points="1179,-151 1000,-151 1000,-115 1179,-115 1179,-151"/>
<text text-anchor="middle" x="1089.5" y="-129.3" font-family="Times New Roman,serif" font-size="14.00">Filter: Library function: printf</text>
</g>
<!-- FUN5&#45;&gt;FUN11 -->
<g id="edge15" class="edge">
<title>FUN5&#45;&gt;FUN11</title>
<path fill="none" stroke="black" d="M154.37,-12C376.08,-12 1090,-12 1090,-12 1090,-12 1090,-104.89 1090,-104.89"/>
<polygon fill="black" stroke="black" points="1086.5,-104.89 1090,-114.89 1093.5,-104.89 1086.5,-104.89"/>
</g>
<!-- FUN13 -->
<g id="node8" class="node">
<title>FUN13</title>
<polygon fill="lightgreen" stroke="black" points="956.5,-346 783.5,-346 783.5,-310 956.5,-310 956.5,-346"/>
<text text-anchor="middle" x="870" y="-324.3" font-family="Times New Roman,serif" font-size="14.00">Filter: Library function: rand</text>
</g>
<!-- FUN4&#45;&gt;FUN13 -->
<g id="edge16" class="edge">
<title>FUN4&#45;&gt;FUN13</title>
<path fill="none" stroke="black" d="M730.6,-334C730.6,-334 773.34,-334 773.34,-334"/>
<polygon fill="black" stroke="black" points="773.34,-337.5 783.34,-334 773.34,-330.5 773.34,-337.5"/>
</g>
<!-- FUN2&#45;&gt;FUN6 -->
<g id="edge18" class="edge">
<title>FUN2&#45;&gt;FUN6</title>
<path fill="none" stroke="black" d="M736,-224.1C736,-235.09 736,-247 736,-247 736,-247 765.84,-247 765.84,-247"/>
<polygon fill="black" stroke="black" points="765.84,-250.5 775.84,-247 765.84,-243.5 765.84,-250.5"/>
</g>
<!-- FUN1 -->
<g id="node10" class="node">
<title>FUN1</title>
<polygon fill="lightgreen" stroke="black" points="960.5,-224 779.5,-224 779.5,-188 960.5,-188 960.5,-224"/>
<text text-anchor="middle" x="870" y="-202.3" font-family="Times New Roman,serif" font-size="14.00">Filter: game.h: GetMineCount</text>
</g>
<!-- FUN2&#45;&gt;FUN1 -->
<g id="edge19" class="edge">
<title>FUN2&#45;&gt;FUN1</title>
<path fill="none" stroke="black" d="M740.12,-215C740.12,-215 769.2,-215 769.2,-215"/>
<polygon fill="black" stroke="black" points="769.2,-218.5 779.2,-215 769.2,-211.5 769.2,-218.5"/>
</g>
<!-- FUN12 -->
<g id="node11" class="node">
<title>FUN12</title>
<polygon fill="lightgreen" stroke="black" points="552,-216 373,-216 373,-180 552,-180 552,-216"/>
<text text-anchor="middle" x="462.5" y="-194.3" font-family="Times New Roman,serif" font-size="14.00">Filter: Library function: scanf</text>
</g>
<!-- FUN2&#45;&gt;FUN12 -->
<g id="edge17" class="edge">
<title>FUN2&#45;&gt;FUN12</title>
<path fill="none" stroke="black" d="M587.82,-197.33C587.82,-197.33 562.33,-197.33 562.33,-197.33"/>
<polygon fill="black" stroke="black" points="562.33,-193.83 552.33,-197.33 562.33,-200.83 562.33,-193.83"/>
</g>
<!-- FUN2&#45;&gt;FUN11 -->
<g id="edge20" class="edge">
<title>FUN2&#45;&gt;FUN11</title>
<path fill="none" stroke="black" d="M740.32,-197C750.77,-197 758,-197 758,-197 758,-197 758,-142.5 758,-142.5 758,-142.5 989.79,-142.5 989.79,-142.5"/>
<polygon fill="black" stroke="black" points="989.79,-146 999.79,-142.5 989.79,-139 989.79,-146"/>
</g>
<!-- FUN13&#45;&gt;FUN4 -->
<g id="edge21" class="edge">
<title>FUN13&#45;&gt;FUN4</title>
<path fill="none" stroke="black" d="M783.23,-322C783.23,-322 740.63,-322 740.63,-322"/>
<polygon fill="black" stroke="black" points="740.63,-318.5 730.63,-322 740.63,-325.5 740.63,-318.5"/>
</g>
<!-- FUN6&#45;&gt;FUN11 -->
<g id="edge22" class="edge">
<title>FUN6&#45;&gt;FUN11</title>
<path fill="none" stroke="black" d="M964.26,-260C1023.97,-260 1090,-260 1090,-260 1090,-260 1090,-161.2 1090,-161.2"/>
<polygon fill="black" stroke="black" points="1093.5,-161.2 1090,-151.2 1086.5,-161.2 1093.5,-161.2"/>
</g>
<!-- FUN1&#45;&gt;FUN2 -->
<g id="edge23" class="edge">
<title>FUN1&#45;&gt;FUN2</title>
<path fill="none" stroke="black" d="M779.35,-206C779.35,-206 750.21,-206 750.21,-206"/>
<polygon fill="black" stroke="black" points="750.21,-202.5 740.21,-206 750.21,-209.5 750.21,-202.5"/>
</g>
<!-- FUN12&#45;&gt;FUN2 -->
<g id="edge2" class="edge">
<title>FUN12&#45;&gt;FUN2</title>
<path fill="none" stroke="black" d="M552.05,-206.67C552.05,-206.67 577.95,-206.67 577.95,-206.67"/>
<polygon fill="black" stroke="black" points="577.95,-210.17 587.95,-206.67 577.95,-203.17 577.95,-210.17"/>
</g>
<!-- FUN12&#45;&gt;FUN8 -->
<g id="edge1" class="edge">
<title>FUN12&#45;&gt;FUN8</title>
<path fill="none" stroke="black" d="M372.79,-189C348.11,-189 328,-189 328,-189 328,-189 328,-134.01 328,-134.01"/>
<polygon fill="black" stroke="black" points="331.5,-134.01 328,-124.01 324.5,-134.01 331.5,-134.01"/>
</g>
<!-- FUN8&#45;&gt;FUN10 -->
<g id="edge4" class="edge">
<title>FUN8&#45;&gt;FUN10</title>
<path fill="none" stroke="black" d="M214.93,-91C214.93,-91 185.75,-91 185.75,-91"/>
<polygon fill="black" stroke="black" points="185.75,-87.5 175.75,-91 185.75,-94.5 185.75,-87.5"/>
</g>
<!-- FUN8&#45;&gt;FUN7 -->
<g id="edge5" class="edge">
<title>FUN8&#45;&gt;FUN7</title>
<path fill="none" stroke="black" d="M234,-124.07C234,-159.35 234,-234 234,-234 234,-234 162.04,-234 162.04,-234"/>
<polygon fill="black" stroke="black" points="162.04,-230.5 152.04,-234 162.04,-237.5 162.04,-230.5"/>
</g>
<!-- FUN8&#45;&gt;FUN9 -->
<g id="edge6" class="edge">
<title>FUN8&#45;&gt;FUN9</title>
<path fill="none" stroke="black" d="M225,-124.13C225,-144.57 225,-175 225,-175 225,-175 189.13,-175 189.13,-175"/>
<polygon fill="black" stroke="black" points="189.13,-171.5 179.13,-175 189.13,-178.5 189.13,-171.5"/>
</g>
<!-- FUN8&#45;&gt;FUN5 -->
<g id="edge7" class="edge">
<title>FUN8&#45;&gt;FUN5</title>
<path fill="none" stroke="black" d="M276,-87.8C276,-63.64 276,-24 276,-24 276,-24 164.21,-24 164.21,-24"/>
<polygon fill="black" stroke="black" points="164.21,-20.5 154.21,-24 164.21,-27.5 164.21,-20.5"/>
</g>
<!-- FUN8&#45;&gt;FUN12 -->
<g id="edge3" class="edge">
<title>FUN8&#45;&gt;FUN12</title>
<path fill="none" stroke="black" d="M318,-124.18C318,-150.99 318,-198 318,-198 318,-198 362.63,-198 362.63,-198"/>
<polygon fill="black" stroke="black" points="362.63,-201.5 372.63,-198 362.63,-194.5 362.63,-201.5"/>
</g>
<!-- FUN8&#45;&gt;FUN11 -->
<g id="edge8" class="edge">
<title>FUN8&#45;&gt;FUN11</title>
<path fill="none" stroke="black" d="M337.14,-119.5C337.14,-119.5 989.85,-119.5 989.85,-119.5"/>
<polygon fill="black" stroke="black" points="989.85,-123 999.85,-119.5 989.85,-116 989.85,-123"/>
</g>
<!-- Sink_0 -->
<g id="node14" class="node">
<title>Sink_0</title>
<ellipse fill="lightyellow" stroke="black" cx="462.5" cy="-60" rx="27" ry="18"/>
<text text-anchor="middle" x="462.5" y="-56.3" font-family="Times New Roman,serif" font-size="14.00">Sink</text>
</g>
<!-- FUN8&#45;&gt;Sink_0 -->
<g id="edge9" class="edge">
<title>FUN8&#45;&gt;Sink_0</title>
<path fill="none" stroke="black" d="M337.23,-101.5C391.77,-101.5 463,-101.5 463,-101.5 463,-101.5 463,-88.32 463,-88.32"/>
<polygon fill="black" stroke="black" points="466.5,-88.32 463,-78.32 459.5,-88.32 466.5,-88.32"/>
</g>
<!-- Sink_1 -->
<g id="node15" class="node">
<title>Sink_1</title>
<ellipse fill="lightyellow" stroke="black" cx="1242" cy="-133" rx="27" ry="18"/>
<text text-anchor="middle" x="1242" y="-129.3" font-family="Times New Roman,serif" font-size="14.00">Sink</text>
</g>
<!-- FUN11&#45;&gt;Sink_1 -->
<g id="edge24" class="edge">
<title>FUN11&#45;&gt;Sink_1</title>
<path fill="none" stroke="black" d="M1179.09,-133C1179.09,-133 1204.83,-133 1204.83,-133"/>
<polygon fill="black" stroke="black" points="1204.83,-136.5 1214.83,-133 1204.83,-129.5 1204.83,-136.5"/>
</g>
<!-- Pump_0 -->
<g id="node16" class="node">
<title>Pump_0</title>
<ellipse fill="lightblue" stroke="black" cx="89.5" cy="-133" rx="32.5" ry="18"/>
<text text-anchor="middle" x="89.5" y="-129.3" font-family="Times New Roman,serif" font-size="14.00">Pump</text>
</g>
<!-- Pump_0&#45;&gt;FUN8 -->
<g id="edge25" class="edge">
<title>Pump_0&#45;&gt;FUN8</title>
<path fill="none" stroke="black" d="M111.26,-119.5C111.26,-119.5 204.94,-119.5 204.94,-119.5"/>
<polygon fill="black" stroke="black" points="204.94,-123 214.94,-119.5 204.94,-116 204.94,-123"/>
</g>
<!-- Pump_1 -->
<g id="node17" class="node">
<title>Pump_1</title>
<ellipse fill="lightblue" stroke="black" cx="276" cy="-198" rx="32.5" ry="18"/>
<text text-anchor="middle" x="276" y="-194.3" font-family="Times New Roman,serif" font-size="14.00">Pump</text>
</g>
<!-- Pump_1&#45;&gt;FUN12 -->
<g id="edge26" class="edge">
<title>Pump_1&#45;&gt;FUN12</title>
<path fill="none" stroke="black" d="M304.33,-207C304.33,-207 362.78,-207 362.78,-207"/>
<polygon fill="black" stroke="black" points="362.78,-210.5 372.78,-207 362.78,-203.5 362.78,-210.5"/>
</g>
</g>
</svg>
